<?xml version="1.0" standalone="no"?>
<!DOCTYPE svg PUBLIC "-//W3C//DTD SVG 20010904//EN"
 "http://www.w3.org/TR/2001/REC-SVG-20010904/DTD/svg10.dtd">
<svg version="1.0" xmlns="http://www.w3.org/2000/svg"
 width="745.000000pt" height="1280.000000pt" viewBox="0 0 745.000000 1280.000000"
 preserveAspectRatio="xMidYMid meet">
<metadata>
Created by potrace 1.15, written by Peter Selinger 2001-2017
</metadata>
<g transform="translate(0.000000,1280.000000) scale(0.100000,-0.100000)"
fill="#000000" stroke="none">
<path d="M3330 12794 c-36 -2 -119 -8 -185 -14 -895 -80 -1568 -353 -2045
-830 -384 -383 -577 -837 -596 -1403 -21 -598 146 -1111 510 -1567 33 -41 138
-154 234 -251 96 -97 170 -179 165 -182 -5 -3 -44 -20 -88 -37 -432 -171 -783
-465 -1008 -842 -154 -257 -237 -484 -299 -813 -17 -91 -17 -578 0 -690 50
-325 90 -485 171 -687 120 -302 274 -527 549 -806 412 -417 555 -532 922 -743
305 -175 609 -303 1210 -509 825 -283 1399 -503 1615 -618 65 -35 70 -40 88
-92 25 -71 33 -199 18 -284 -42 -240 -233 -411 -541 -484 -175 -42 -409 -60
-568 -43 -231 23 -427 92 -477 167 -58 86 -125 315 -148 502 l-14 114 -149
149 -149 149 -1067 0 -1068 0 0 -107 c0 -60 7 -162 15 -228 56 -468 202 -841
469 -1200 66 -89 164 -194 375 -406 298 -298 383 -372 566 -494 568 -378 1334
-564 2230 -542 428 11 762 62 1115 168 673 202 1263 615 1593 1114 240 365
346 799 308 1262 -24 285 -94 545 -212 782 -123 250 -227 388 -515 688 -114
119 -184 198 -176 201 36 12 231 117 315 170 145 91 241 166 361 282 318 308
500 674 571 1150 22 149 30 457 16 625 -49 588 -212 1018 -529 1395 -135 161
-522 535 -660 638 -495 368 -1305 750 -2457 1159 -353 125 -504 190 -666 289
-48 29 -60 42 -84 96 -40 89 -55 159 -55 263 0 232 99 400 297 503 235 122
688 158 969 76 47 -13 98 -31 113 -39 57 -29 114 -226 132 -448 l11 -142 151
-152 152 -153 1068 0 1068 0 -6 53 c-44 390 -104 651 -214 926 -72 180 -225
439 -345 586 -102 124 -558 576 -667 661 -451 351 -930 541 -1569 620 -119 15
-658 27 -820 18z m259 -5685 c938 -416 1304 -587 1519 -709 85 -48 96 -66 119
-195 16 -92 10 -192 -18 -303 -65 -256 -288 -433 -637 -505 l-72 -15 -78 33
c-42 18 -214 92 -382 165 -168 73 -334 145 -370 160 -36 15 -171 74 -300 130
-129 56 -296 128 -370 160 -447 192 -572 251 -689 324 -42 27 -73 90 -92 190
-42 222 75 467 292 611 121 81 415 204 488 205 13 0 278 -113 590 -251z"/>
</g>
</svg>
