<?xml version="1.0" standalone="no"?>
<!DOCTYPE svg PUBLIC "-//W3C//DTD SVG 20010904//EN"
 "http://www.w3.org/TR/2001/REC-SVG-20010904/DTD/svg10.dtd">
<svg version="1.0" xmlns="http://www.w3.org/2000/svg"
 width="612.000000pt" height="1280.000000pt" viewBox="0 0 612.000000 1280.000000"
 preserveAspectRatio="xMidYMid meet">
<metadata>
Created by potrace 1.15, written by Peter Selinger 2001-2017
</metadata>
<g transform="translate(0.000000,1280.000000) scale(0.100000,-0.100000)"
fill="#000000" stroke="none">
<path d="M3335 12793 c-475 -39 -869 -149 -1260 -352 -334 -173 -595 -370
-885 -667 -259 -266 -450 -533 -606 -849 -144 -293 -231 -576 -265 -868 -18
-151 -6 -486 21 -612 48 -223 131 -409 259 -579 41 -54 163 -187 272 -296
l198 -198 -76 -62 c-450 -370 -765 -798 -909 -1237 -64 -194 -79 -301 -78
-543 1 -173 5 -238 22 -331 43 -235 130 -443 256 -609 81 -107 461 -483 583
-577 234 -180 453 -308 738 -431 294 -127 473 -190 1345 -476 634 -208 991
-357 1270 -532 215 -134 269 -190 363 -379 198 -397 190 -980 -18 -1398 -201
-402 -595 -711 -1075 -841 -324 -88 -766 -106 -1165 -47 -344 51 -633 161
-853 325 -94 69 -211 267 -285 481 -79 230 -107 407 -114 731 l-6 252 -106
105 -106 105 -216 5 -216 6 -7 -292 c-16 -681 -48 -1117 -117 -1606 l-31 -213
28 -32 c133 -148 237 -229 467 -365 352 -207 730 -332 1167 -388 172 -22 684
-24 870 -5 691 73 1282 297 1800 683 597 444 1013 1025 1170 1635 67 260 96
524 87 794 -14 392 -101 695 -279 962 -44 66 -115 146 -247 281 -102 103 -187
191 -189 195 -1 5 23 29 55 54 173 137 372 341 503 516 269 360 402 733 417
1172 15 433 -82 807 -290 1115 -44 65 -123 152 -281 311 -193 192 -237 231
-346 303 -69 46 -210 125 -315 176 -341 168 -690 295 -1410 515 -912 278
-1343 455 -1729 710 -138 91 -184 134 -248 233 -137 214 -196 443 -185 717 14
351 132 637 365 882 286 300 635 473 1102 545 164 25 621 25 805 -1 306 -42
553 -128 747 -258 119 -80 248 -354 307 -653 28 -141 40 -266 48 -490 l6 -196
106 -100 105 -100 203 12 203 13 0 155 c0 252 21 722 46 1021 29 363 86 826
105 862 12 22 14 19 -89 133 -41 44 -78 90 -84 102 -22 45 -404 216 -690 308
-276 89 -474 132 -733 160 -124 13 -417 18 -530 8z m-1462 -4879 c324 -122
597 -217 1342 -463 930 -307 1105 -378 1348 -544 101 -69 149 -120 218 -231
193 -314 244 -778 127 -1146 -60 -188 -203 -425 -335 -552 l-48 -46 -120 35
c-588 171 -1371 460 -1865 687 -482 222 -966 517 -1124 686 -99 106 -182 262
-217 408 -18 75 -21 107 -16 227 11 287 87 526 242 760 60 91 209 255 232 255
8 0 106 -34 216 -76z"/>
</g>
</svg>
