<?xml version="1.0" standalone="no"?>
<!DOCTYPE svg PUBLIC "-//W3C//DTD SVG 20010904//EN"
 "http://www.w3.org/TR/2001/REC-SVG-20010904/DTD/svg10.dtd">
<svg version="1.0" xmlns="http://www.w3.org/2000/svg"
 width="1280.000000pt" height="1280.000000pt" viewBox="0 0 1280.000000 1280.000000"
 preserveAspectRatio="xMidYMid meet">
<metadata>
Created by potrace 1.15, written by Peter Selinger 2001-2017
</metadata>
<g transform="translate(0.000000,1280.000000) scale(0.100000,-0.100000)"
fill="#000000" stroke="none">
<path d="M6220 12299 c-913 -41 -1687 -295 -2190 -717 -157 -132 -636 -624
-710 -729 -224 -319 -314 -590 -315 -948 0 -325 77 -580 260 -855 112 -169
307 -380 477 -515 l37 -29 -132 -86 c-73 -47 -179 -124 -237 -170 -140 -113
-628 -601 -711 -713 -153 -205 -244 -424 -278 -671 -14 -99 -14 -358 -1 -484
53 -487 212 -808 576 -1162 410 -399 1023 -758 2534 -1485 774 -372 1059 -514
1255 -626 479 -273 685 -461 741 -679 23 -91 16 -261 -16 -354 -28 -80 -34
-85 -187 -146 -216 -86 -417 -120 -707 -120 -527 0 -876 107 -1136 347 -181
167 -299 394 -360 693 -12 57 -26 110 -32 117 -8 10 -203 13 -981 13 l-971 0
-198 -197 c-222 -221 -209 -197 -184 -339 96 -542 375 -1013 801 -1350 502
-397 1166 -648 1955 -739 732 -83 1515 -45 2130 106 533 130 971 336 1340 629
125 99 438 410 534 530 269 338 399 665 413 1040 17 462 -82 838 -305 1150
-86 121 -286 323 -426 430 l-109 83 38 21 c79 44 334 217 415 282 107 86 378
351 480 469 224 260 357 522 405 800 35 197 15 537 -45 781 -39 160 -71 247
-141 384 -294 570 -974 1062 -2324 1683 -1722 791 -2307 1138 -2463 1460 -47
97 -56 152 -42 254 18 138 45 184 132 229 142 72 350 113 608 121 431 13 776
-70 981 -235 176 -142 294 -361 340 -632 24 -142 23 -140 52 -140 13 0 34 -9
47 -20 23 -20 37 -20 959 -20 851 0 939 1 961 16 37 25 307 293 341 338 35 48
36 65 4 222 -140 693 -572 1237 -1239 1564 -497 243 -1062 368 -1811 400 -253
11 -320 11 -565 -1z m-492 -4875 c362 -179 765 -380 897 -445 132 -65 328
-169 435 -230 716 -408 975 -690 1020 -1114 18 -162 0 -290 -56 -416 -26 -57
-51 -77 -191 -149 l-41 -21 -99 49 c-54 27 -285 138 -513 247 -848 403 -1457
722 -1847 965 -338 211 -521 421 -578 662 -50 214 40 594 169 704 48 42 103
73 129 74 11 0 314 -147 675 -326z"/>
</g>
</svg>
